<?xml version="1.0" encoding="UTF-8"?>
<!DOCTYPE svg PUBLIC "-//W3C//DTD SVG 1.1//EN" "http://www.w3.org/Graphics/SVG/1.1/DTD/svg11.dtd">
<svg xmlns="http://www.w3.org/2000/svg" version="1.1" width="354px" height="98px" style="shape-rendering:geometricPrecision; text-rendering:geometricPrecision; image-rendering:optimizeQuality; fill-rule:evenodd; clip-rule:evenodd" xmlns:xlink="http://www.w3.org/1999/xlink">
<g><path style="opacity:1" fill="#101011" d="M -0.5,-0.5 C 117.5,-0.5 235.5,-0.5 353.5,-0.5C 353.5,32.1667 353.5,64.8333 353.5,97.5C 235.5,97.5 117.5,97.5 -0.5,97.5C -0.5,64.8333 -0.5,32.1667 -0.5,-0.5 Z"/></g>
<g><path style="opacity:1" fill="#f2f2f2" d="M 204.5,24.5 C 206.167,24.5 207.833,24.5 209.5,24.5C 209.334,32.1739 209.5,39.8406 210,47.5C 213.167,43.6667 216.333,39.8333 219.5,36C 221.579,35.1923 223.579,35.359 225.5,36.5C 222.167,40.5 218.833,44.5 215.5,48.5C 218.977,53.1451 222.644,57.6451 226.5,62C 224.098,62.8141 221.765,62.6474 219.5,61.5C 216.806,57.4601 213.639,53.7935 210,50.5C 209.501,54.4862 209.334,58.4862 209.5,62.5C 207.833,62.5 206.167,62.5 204.5,62.5C 204.5,49.8333 204.5,37.1667 204.5,24.5 Z"/></g>
<g><path style="opacity:1" fill="#fcfcfc" d="M 136.5,24.5 C 138.167,24.5 139.833,24.5 141.5,24.5C 141.5,37.1667 141.5,49.8333 141.5,62.5C 139.833,62.5 138.167,62.5 136.5,62.5C 136.5,49.8333 136.5,37.1667 136.5,24.5 Z"/></g>
<g><path style="opacity:1" fill="#f8f8f8" d="M 34.5,45.5 C 33.9569,45.56 33.6236,45.8933 33.5,46.5C 39.6544,47.8166 45.6544,47.8166 51.5,46.5C 61.1667,46.5 70.8333,46.5 80.5,46.5C 80.5,51.5 80.5,56.5 80.5,61.5C 63.5076,63.2399 46.5076,64.9066 29.5,66.5C 29.5,64.5 29.5,62.5 29.5,60.5C 38.1667,59.8333 46.8333,59.1667 55.5,58.5C 57.604,58.7989 59.604,58.4656 61.5,57.5C 50.8541,56.5013 40.1874,56.168 29.5,56.5C 29.5,51.1667 29.5,45.8333 29.5,40.5C 38.4902,39.713 47.4902,39.0464 56.5,38.5C 58.288,38.7852 59.9547,38.4519 61.5,37.5C 50.8541,36.5013 40.1874,36.168 29.5,36.5C 29.5,33.1667 29.5,29.8333 29.5,26.5C 46.5,26.5 63.5,26.5 80.5,26.5C 80.5,31.5 80.5,36.5 80.5,41.5C 65.157,42.723 49.8236,44.0564 34.5,45.5 Z"/></g>
<g><path style="opacity:1" fill="#ececec" d="M 268.5,26.5 C 274.016,26.4734 275.349,28.64 272.5,33C 267.791,33.082 266.458,30.9154 268.5,26.5 Z"/></g>
<g><path style="opacity:1" fill="#efefef" d="M 104.5,26.5 C 110.842,26.3338 117.175,26.5005 123.5,27C 132.059,30.4229 133.726,35.9229 128.5,43.5C 135.7,51.0004 134.7,57.1671 125.5,62C 118.508,62.4996 111.508,62.6663 104.5,62.5C 104.5,50.5 104.5,38.5 104.5,26.5 Z"/></g>
<g><path style="opacity:1" fill="#121212" d="M 110.5,32.5 C 114.846,32.3343 119.179,32.501 123.5,33C 126.399,36.1558 126.065,38.8225 122.5,41C 118.514,41.4988 114.514,41.6655 110.5,41.5C 110.5,38.5 110.5,35.5 110.5,32.5 Z"/></g>
<g><path style="opacity:1" fill="#f7f7f7" d="M 283.5,45.5 C 282.512,50.6405 282.179,55.9738 282.5,61.5C 281.167,61.5 279.833,61.5 278.5,61.5C 278.5,53.1667 278.5,44.8333 278.5,36.5C 279.833,36.5 281.167,36.5 282.5,36.5C 282.246,38.4008 282.58,39.0674 283.5,38.5C 289.274,34.2424 294.774,34.5758 300,39.5C 301.432,47.0542 301.932,54.7208 301.5,62.5C 299.833,62.5 298.167,62.5 296.5,62.5C 296.92,55.7163 296.42,49.0496 295,42.5C 292.503,40.5218 289.669,40.0218 286.5,41C 284.859,42.129 283.859,43.629 283.5,45.5 Z"/></g>
<g><path style="opacity:1" fill="#f5f5f5" d="M 325.5,36.5 C 327.167,36.5 328.833,36.5 330.5,36.5C 330.5,45.1667 330.5,53.8333 330.5,62.5C 328.917,71.4316 323.583,75.265 314.5,74C 310.754,72.8004 307.754,70.6338 305.5,67.5C 306.559,66.3036 307.893,65.637 309.5,65.5C 311.706,67.1994 314.206,68.1994 317,68.5C 322.639,68.3731 325.139,65.7064 324.5,60.5C 309.311,65.1557 302.811,59.489 305,43.5C 309.903,34.9398 316.569,33.2731 325,38.5C 325.464,37.9056 325.631,37.2389 325.5,36.5 Z"/></g>
<g><path style="opacity:1" fill="#3e3e3f" d="M 29.5,36.5 C 40.1874,36.168 50.8541,36.5013 61.5,37.5C 59.9547,38.4519 58.288,38.7852 56.5,38.5C 47.5,37.8333 38.5,37.1667 29.5,36.5 Z"/></g>
<g><path style="opacity:1" fill="#f4f4f4" d="M 153.5,35.5 C 158.081,34.9231 162.248,35.9231 166,38.5C 166.483,37.552 166.649,36.552 166.5,35.5C 168.167,35.5 169.833,35.5 171.5,35.5C 171.5,44.5 171.5,53.5 171.5,62.5C 169.833,62.5 168.167,62.5 166.5,62.5C 166.649,61.448 166.483,60.448 166,59.5C 154.115,65.8081 146.949,62.3081 144.5,49C 145.155,42.8354 148.155,38.3354 153.5,35.5 Z"/></g>
<g><path style="opacity:1" fill="#f2f2f2" d="M 183.5,35.5 C 190.208,34.2745 195.708,36.2745 200,41.5C 200.483,42.448 200.649,43.448 200.5,44.5C 199.07,44.4208 197.736,44.7542 196.5,45.5C 194.309,42.9573 191.642,41.2906 188.5,40.5C 181.727,41.6975 179.227,45.6975 181,52.5C 183.072,57.1433 186.572,58.6433 191.5,57C 193.344,55.8179 195.177,54.6512 197,53.5C 198.395,53.7804 199.562,54.4471 200.5,55.5C 195.432,62.5726 188.765,64.4059 180.5,61C 171.811,51.3246 172.811,42.8246 183.5,35.5 Z"/></g>
<g><path style="opacity:1" fill="#eeeeee" d="M 227.5,35.5 C 229.5,35.5 231.5,35.5 233.5,35.5C 234.842,41.3578 236.675,47.0245 239,52.5C 240.465,47.1057 242.131,41.7724 244,36.5C 245.699,35.5939 247.533,35.2606 249.5,35.5C 250.842,41.3578 252.675,47.0245 255,52.5C 256.667,47.1667 258.333,41.8333 260,36.5C 261.814,35.2404 263.647,35.2404 265.5,36.5C 262.22,45.0043 259.553,53.671 257.5,62.5C 255.533,62.7394 253.699,62.4061 252,61.5C 250.535,56.1057 248.869,50.7724 247,45.5C 244.27,50.8578 242.436,56.5244 241.5,62.5C 239.712,62.7852 238.045,62.4519 236.5,61.5C 233.492,52.8099 230.492,44.1432 227.5,35.5 Z"/></g>
<g><path style="opacity:1" fill="#fbfbfb" d="M 273.5,36.5 C 273.5,45.1667 273.5,53.8333 273.5,62.5C 271.833,62.5 270.167,62.5 268.5,62.5C 268.5,53.8333 268.5,45.1667 268.5,36.5C 270.167,36.5 271.833,36.5 273.5,36.5 Z"/></g>
<g><path style="opacity:1" fill="#a9a9a9" d="M 283.5,38.5 C 282.58,39.0674 282.246,38.4008 282.5,36.5C 281.167,36.5 279.833,36.5 278.5,36.5C 278.5,44.8333 278.5,53.1667 278.5,61.5C 279.833,61.5 281.167,61.5 282.5,61.5C 282.179,55.9738 282.512,50.6405 283.5,45.5C 283.5,51.1667 283.5,56.8333 283.5,62.5C 281.5,62.5 279.5,62.5 277.5,62.5C 277.5,53.5 277.5,44.5 277.5,35.5C 279.5,35.5 281.5,35.5 283.5,35.5C 283.5,36.5 283.5,37.5 283.5,38.5 Z"/></g>
<g><path style="opacity:1" fill="#171718" d="M 155.5,40.5 C 164.365,40.8474 167.532,45.1807 165,53.5C 159.75,59.1731 155.084,58.8398 151,52.5C 149.474,47.2389 150.974,43.2389 155.5,40.5 Z"/></g>
<g><path style="opacity:1" fill="#161616" d="M 315.5,40.5 C 322.465,40.961 325.632,44.6277 325,51.5C 322.523,57.4503 318.357,58.9503 312.5,56C 307.753,49.637 308.753,44.4703 315.5,40.5 Z"/></g>
<g><path style="opacity:1" fill="#525253" d="M 325.5,36.5 C 327.265,35.5386 329.265,35.2053 331.5,35.5C 331.827,44.6822 331.493,53.6822 330.5,62.5C 330.5,53.8333 330.5,45.1667 330.5,36.5C 328.833,36.5 327.167,36.5 325.5,36.5 Z"/></g>
<g><path style="opacity:1" fill="#858586" d="M 34.5,45.5 C 39.9753,46.4889 45.642,46.8222 51.5,46.5C 45.6544,47.8166 39.6544,47.8166 33.5,46.5C 33.6236,45.8933 33.9569,45.56 34.5,45.5 Z"/></g>
<g><path style="opacity:1" fill="#4d4d4e" d="M 273.5,36.5 C 271.833,36.5 270.167,36.5 268.5,36.5C 268.5,45.1667 268.5,53.8333 268.5,62.5C 267.507,53.6822 267.173,44.6822 267.5,35.5C 269.735,35.2053 271.735,35.5386 273.5,36.5 Z"/></g>
<g><path style="opacity:1" fill="#161617" d="M 110.5,46.5 C 114.846,46.3343 119.179,46.501 123.5,47C 127.944,49.1114 128.611,52.1114 125.5,56C 120.511,56.4993 115.511,56.6659 110.5,56.5C 110.5,53.1667 110.5,49.8333 110.5,46.5 Z"/></g>
<g><path style="opacity:1" fill="#3f3f40" d="M 29.5,56.5 C 40.1874,56.168 50.8541,56.5013 61.5,57.5C 59.604,58.4656 57.604,58.7989 55.5,58.5C 46.8333,57.8333 38.1667,57.1667 29.5,56.5 Z"/></g>
</svg>
